<svg xmlns="http://www.w3.org/2000/svg" viewBox="0 0 128 128" role="img" aria-label="Milieu bleu">
  <defs>
    <clipPath id="cercle"><circle cx="64" cy="64" r="62"/></clipPath>
  </defs>
  <circle cx="64" cy="64" r="62" fill="#1d4ed8"/>
  <g clip-path="url(#cercle)">
    <ellipse cx="64" cy="118" rx="40" ry="12" fill="rgba(0,0,0,0.12)"/>
    <path d="M32 128 L96 128 L88 92 Q64 84 40 92 Z" fill="#2563eb"/>
    <path d="M52 92 L76 92 L74 128 L54 128 Z" fill="#fbbf24" opacity="0.35"/>
    <path d="M58 92 Q64 88 70 92" fill="none" stroke="#fbbf24" stroke-width="2"/>
    <circle cx="64" cy="56" r="24" fill="#8d5524"/>
    <ellipse cx="64" cy="62" rx="20" ry="16" fill="#8d5524"/>
    <circle cx="48" cy="36" r="8" fill="#2c1810"/><circle cx="64" cy="32" r="9" fill="#2c1810"/><circle cx="80" cy="36" r="8" fill="#2c1810"/><ellipse cx="64" cy="40" rx="26" ry="12" fill="#2c1810"/>
    <ellipse cx="54" cy="54" rx="3" ry="4" fill="#1e293b"/>
    <ellipse cx="74" cy="54" rx="3" ry="4" fill="#1e293b"/>
    <circle cx="55" cy="53" r="1" fill="#ffffff"/>
    <circle cx="75" cy="53" r="1" fill="#ffffff"/>
    <path d="M58 64 Q64 68 70 64" fill="none" stroke="#b45309" stroke-width="1.5" stroke-linecap="round"/>
    <ellipse cx="48" cy="60" rx="4" ry="2.5" fill="#e11d48" opacity="0.25"/>
    <ellipse cx="80" cy="60" rx="4" ry="2.5" fill="#e11d48" opacity="0.25"/>
    
  </g>
</svg>
